<?xml version="1.0" encoding="UTF-8"?>
<svg id="Layer_1" data-name="Layer 1" xmlns="http://www.w3.org/2000/svg" viewBox="0 0 83.5 99.41">
  <defs>
    <style>
      .cls-1 {
        font-family: Pretendard-Medium, Pretendard;
        font-size: 78.64px;
        font-weight: 500;
        stroke: #fff;
        stroke-miterlimit: 10;
      }

      .cls-1, .cls-2 {
        fill: #fff;
      }
    </style>
  </defs>
  <g>
    <polygon class="cls-2" points="68.96 31.41 68.96 16.33 68.05 16.33 43.31 31.41 40.78 31.41 16.04 16.33 15.13 16.33 15.13 31.41 13.13 31.41 13.13 15.27 15.58 15.27 41.77 31.25 42.32 31.25 68.51 15.27 70.87 15.27 70.87 31.41 68.96 31.41"/>
    <path class="cls-2" d="M70.37,15.77v15.14h-.91V15.83h-.91l.1-.06h1.72m-54.94,0l.1,.06h-.91v15.08h-1V15.77h1.81m55.94-1h-3l-26.19,15.98h-.27L15.72,14.77h-3.09V31.91h3v-15.08h.27l24.74,15.08h2.82l24.74-15.08h.27v15.08h2.91V14.77h0Z"/>
  </g>
  <text class="cls-1" transform="translate(.5 75.34) scale(2.06 1)"><tspan x="0" y="0">s</tspan></text>
</svg>